<svg width="90" height="90" viewBox="0 0 90 90" fill="none" xmlns="http://www.w3.org/2000/svg">
<path d="M90 12.8572V20.8928C90 27.9744 69.8438 33.75 45 33.75C20.1562 33.75 0 27.9744 0 20.8928V12.8572C0 5.77564 20.1562 0 45 0C69.8438 0 90 5.77564 90 12.8572ZM90 30.9375V49.0178C90 56.0994 69.8438 61.875 45 61.875C20.1562 61.875 0 56.0994 0 49.0178V30.9375C9.66797 36.7634 27.3632 39.4755 45 39.4755C62.6368 39.4755 80.3318 36.7634 90 30.9375ZM90 59.0625V77.1428C90 84.2244 69.8438 90 45 90C20.1562 90 0 84.2244 0 77.1428V59.0625C9.66797 64.8884 27.3632 67.6005 45 67.6005C62.6368 67.6005 80.3318 64.8884 90 59.0625Z" fill="#6C00FF"/>
</svg>
