<svg width="72" height="74" viewBox="0 0 72 74" fill="none" xmlns="http://www.w3.org/2000/svg">
<path d="M70.6956 18.13C72.2299 16.57 72.2299 14.05 70.6956 12.49L59.5622 1.17C58.0279 -0.39 55.5494 -0.39 54.0151 1.17L36.351 19.13L21.0474 3.57C17.9788 0.450001 12.9825 0.450001 9.91391 3.57L2.43914 11.17C-0.629455 14.29 -0.629455 19.37 2.43914 22.49L17.7428 38.05L0 56.09V73.05H16.6805L34.4626 54.97L49.7663 70.53C53.5037 74.33 58.5393 72.93 60.8997 70.53L68.3745 62.93C71.4431 59.81 71.4431 54.73 68.3745 51.61L53.0709 36.05L70.6956 18.13ZM8.02555 16.81L15.461 9.21L20.4573 14.29L15.8151 19.05L21.3621 24.69L26.0437 19.93L30.7646 24.73L23.2898 32.33L8.02555 16.81ZM52.2054 46.57L47.5238 51.33L53.0709 56.97L57.7525 52.21L62.7488 57.29L55.274 64.89L39.9704 49.33L47.4452 41.73L52.2054 46.57ZM13.4153 65.05H7.86818V59.41L45.6748 20.97L50.7891 26.17L51.2219 26.61L13.4153 65.05ZM51.2219 15.29L56.7689 9.65L62.316 15.29L56.7689 20.93L51.2219 15.29Z" fill="#6C00FF"/>
</svg>
