<?xml version="1.0" standalone="no"?>
<!DOCTYPE svg PUBLIC "-//W3C//DTD SVG 20010904//EN"
 "http://www.w3.org/TR/2001/REC-SVG-20010904/DTD/svg10.dtd">
<svg version="1.0" xmlns="http://www.w3.org/2000/svg"
 width="250.000000pt" height="250.000000pt" viewBox="0 0 250.000000 250.000000"
 preserveAspectRatio="xMidYMid meet">

<g transform="translate(0.000000,250.000000) scale(0.100000,-0.100000)"
fill="#6C00FF" stroke="none">
<path d="M1045 2415 c-178 -34 -357 -107 -481 -198 l-59 -42 -69 13 c-71 14
-176 9 -176 -9 0 -5 19 -9 43 -9 47 0 147 -26 147 -38 0 -4 -21 -28 -46 -52
-66 -64 -153 -183 -201 -276 -293 -563 -85 -1258 469 -1566 205 -114 473 -168
693 -139 255 33 461 125 652 290 65 55 70 58 94 46 48 -26 148 -45 232 -45
104 0 123 15 29 23 -72 6 -148 34 -199 73 l-33 25 54 77 c143 205 211 421 210
672 0 248 -64 458 -198 657 -155 230 -415 411 -686 478 -134 34 -352 43 -475
20z m395 -69 c269 -48 518 -206 690 -437 205 -276 267 -671 156 -996 -30 -87
-103 -229 -155 -302 l-39 -53 -32 43 c-43 59 -75 132 -99 226 -11 43 -59 331
-107 641 -49 309 -91 562 -95 562 -3 0 -22 -35 -41 -77 -19 -43 -131 -293
-248 -556 -117 -263 -217 -474 -221 -470 -4 4 -109 228 -233 497 -124 269
-240 511 -257 537 -31 49 -152 169 -169 169 -40 0 42 61 167 124 76 38 210 82
287 95 80 14 314 12 396 -3z m-883 -298 c43 -48 91 -116 117 -166 16 -32 15
-50 -39 -520 -30 -268 -58 -503 -61 -522 -3 -21 -20 -48 -44 -72 -31 -32 -44
-38 -79 -38 -22 0 -41 -4 -41 -10 0 -6 65 -10 178 -9 148 0 172 2 145 12 -49
18 -67 41 -66 84 2 77 78 913 83 913 3 0 111 -232 240 -515 129 -283 240 -515
245 -515 6 0 15 22 22 49 11 46 417 976 434 995 6 6 9 3 9 -6 0 -37 111 -828
125 -893 21 -96 83 -219 146 -289 l53 -59 -53 -49 c-147 -135 -367 -239 -566
-268 -528 -75 -1028 225 -1208 727 -40 109 -57 221 -57 363 0 302 94 537 311
774 28 31 54 56 59 56 4 0 25 -19 47 -42z"/>
</g>
</svg>
